<svg xmlns="http://www.w3.org/2000/svg" xmlns:xlink="http://www.w3.org/1999/xlink" version="1.1" x="0px" y="0px" viewBox="0 0 16 20" enable-background="new 0 0 16 16" xml:space="preserve"><path d="M16-0.003h-3L8.526,4.473L7.634,3.581l2.121-2.122L9.048,0.752c-0.78-0.779-2.049-0.778-2.828,0L1.624,5.348  c-0.78,0.78-0.78,2.049,0,2.829l4.243,4.243l-2.122,2.121l0.708,0.707c0.39,0.39,0.902,0.584,1.414,0.584s1.024-0.194,1.414-0.584  l4.597-4.597c0.779-0.779,0.779-2.048,0-2.828l-0.35-0.35L16,3V-0.003z M6.927,1.459c0.389-0.39,1.024-0.39,1.414,0L4.452,5.348  C4.193,5.09,3.878,4.925,3.548,4.838L6.927,1.459z M6.573,14.541c-0.39,0.389-1.024,0.389-1.414,0l1.414-1.414  c0.189,0.188,0.292,0.439,0.292,0.707C6.866,14.101,6.762,14.353,6.573,14.541z M11.17,9.944l-3.378,3.378  c-0.089-0.338-0.258-0.649-0.511-0.902l-4.95-4.95c-0.39-0.39-0.39-1.024,0-1.415c0.389-0.389,1.024-0.391,1.414,0l0.707,0.708  l2.475-2.475L7.819,5.18L7,6v2.383L6,10l1.612-0.997L10,9l0.82-0.82l0.35,0.35C11.56,8.92,11.56,9.555,11.17,9.944z M15,2.586  L9.585,8L8.614,8.002L13.75,2.25L8,7.384v-0.97l5.414-5.417H15V2.586z"/><text x="0" y="31" fill="#000000" font-size="5px" font-weight="bold" font-family="'Helvetica Neue', Helvetica, Arial-Unicode, Arial, Sans-serif">Created by Rflor</text></svg>