<svg xmlns="http://www.w3.org/2000/svg" xmlns:xlink="http://www.w3.org/1999/xlink" version="1.1" x="0px" y="0px" viewBox="0 0 100 125" enable-background="new 0 0 100 100" xml:space="preserve"><g><path fill-rule="evenodd" clip-rule="evenodd" d="M10.685,52.831c-1.726-1.721-3.329-3.517-4.811-5.379l3.294-3.337   c1.004,1.321,2.11,2.589,3.32,3.795c14.291,14.258,37.487,14.258,51.779,0c1.144-1.144,2.2-2.343,3.163-3.593l18.758,18.426   C62.276,76.539,31.138,73.235,10.685,52.831L10.685,52.831z"/><polygon fill-rule="evenodd" clip-rule="evenodd" points="67.697,38.28 91.515,62.945 98.75,55.611 74.935,30.948 67.697,38.28     "/><polygon fill-rule="evenodd" clip-rule="evenodd" points="1.157,43.631 3.687,46.117 8.723,41.241 6.192,38.754 1.157,43.631  "/></g></svg>